<svg id="Capa_1" enable-background="new 0 0 512.022 512.022" height="512" viewBox="0 0 512.022 512.022" width="512" xmlns="http://www.w3.org/2000/svg"><g><path d="m348.312 380.171-54.08 54.08c-2.929 2.929-2.929 7.678 0 10.607 1.465 1.464 3.385 2.197 5.304 2.197s3.839-.733 5.304-2.197l54.08-54.081c2.929-2.929 2.929-7.678 0-10.606-2.931-2.929-7.679-2.929-10.608 0zm-171.675-178.851c-13.928 0-25.259 11.331-25.259 25.259 0 4.142 3.357 7.5 7.5 7.5s7.5-3.358 7.5-7.5c0-5.657 4.602-10.259 10.259-10.259 5.656 0 10.259 4.602 10.259 10.259 0 4.142 3.357 7.5 7.5 7.5s7.5-3.358 7.5-7.5c0-13.928-11.331-25.259-25.259-25.259zm294.413 63.968c29.92-30.984 16.688-82.203-23.778-95.383-.197-1.435-.413-2.864-.668-4.28 7.049-1.562 13.493-3.105 19.374-4.577 16.322-4.084 26.279-20.686 22.195-37.008-4.09-16.353-20.648-26.294-37.008-22.195-6.83 1.709-14.484 3.523-23.065 5.344-39.389-94.095-161.263-134.217-258.383-87.896-3.739 1.783-5.324 6.26-3.541 9.998 1.783 3.74 6.262 5.323 9.998 3.541 70.23-33.497 158.56-18.997 210.253 37.041-79.263 9.642-179.065 9.949-260.859-.003 6.515-7.076 13.744-13.635 21.65-19.562 3.314-2.484 3.987-7.185 1.503-10.5-2.485-3.314-7.186-3.987-10.499-1.502-23.708 17.771-42.763 41.33-54.293 68.883-8.584-1.821-16.24-3.636-23.072-5.345-16.332-4.086-32.908 5.801-37.008 22.195-4.084 16.323 5.873 32.924 22.195 37.008 5.881 1.471 12.325 3.015 19.374 4.577-.255 1.416-.471 2.845-.668 4.28-40.515 13.196-53.666 64.432-23.778 95.384-21.847 23.692-21.739 60.258.399 83.887-5.43 41.743 28.534 78.142 70.552 75.58-.964 4.243-1.747 8.543-2.335 12.89-1.97 14.576 9.52 27.481 24.196 27.481h93.309c-.164 12.269 3.73 23.67 13.479 33.42 32.108 32.108 82.139.293 118.522-27.359 3.276.983 6.635 1.665 10.032 2.037 4.137.456 7.821-2.523 8.271-6.641.449-4.118-2.523-7.82-6.641-8.271-3.533-.386-7.013-1.233-10.34-2.516-2.445-.942-5.202-.541-7.275 1.057-51.977 40.04-83.422 49.625-101.962 31.085-7.432-7.432-10.333-16.945-8.576-29.016.035-.202.066-.405.085-.613 2.831-17.966 15.859-41.547 39.576-72.334 1.598-2.074 1.998-4.832 1.057-7.275-4.662-12.092-3.284-26.302 3.509-36.203 2.336-3.403 7.335-9.112 14.577-9.112 5.692 0 9.871 4.872 11.855 7.777 3.574 5.23 11.657 3.934 13.403-2.169.733-2.564 1.679-5.095 2.81-7.521 7.122-15.271 21.179-25.025 30.072-20.876 4.565 2.129 7.415 7.755 7.819 15.436.312 5.954 7.143 9.189 11.948 5.637 12.29-9.088 26.399-11.105 32.818-4.686 6.418 6.418 4.404 20.527-4.684 32.819-3.54 4.787-.342 11.635 5.638 11.949 14.234.747 20.845 9.693 13.197 22.195-5.427 8.868-15.945 15.588-26.158 18.503-6.092 1.741-7.412 9.823-2.172 13.405 2.905 1.984 7.777 6.163 7.777 11.855 0 4.488-2.412 9.021-6.792 12.763-3.148 2.69-3.521 7.424-.83 10.574 2.69 3.149 7.424 3.522 10.574.831 11.66-9.963 16.027-25.286 7.872-38.176 34.637-6.505 58.684-38.98 54.094-74.525 22.122-23.607 22.269-60.173.402-83.888zm-22.794-78.826c14.39 7.11 24.091 22.049 24.091 38.582 0 24.256-20.222 43.984-44.838 42.931 4.332-11.781 7.239-24.07 8.62-36.716 2.087-1.926 3.757-4.301 4.838-7.003 4.648-11.607 7.096-24.712 7.289-37.794zm-21.214 32.219c-.909 2.271-3.622 3.421-5.801 2.173-16.161-9.256-30.945-27.764-40.69-43.9 19.613-2.452 36.63-5.319 51.385-8.249 4.304 24.064-2.517 44.038-4.894 49.976zm-312.687-135.118c86.809 11.543 196.37 11.561 283.315 0 6.033 8.294 11.204 17.195 15.388 26.621-92.534 17.258-221.434 17.279-314.076.004 4.151-9.354 9.305-18.266 15.373-26.625zm-64.67 62.933c-8.299-2.076-13.361-10.517-11.285-18.816 2.079-8.31 10.486-13.368 18.816-11.284 37.194 9.305 98.27 21.677 198.795 21.677s161.601-12.372 198.796-21.677c8.335-2.082 16.738 2.982 18.815 11.285 2.076 8.299-2.986 16.74-11.285 18.816-38.784 9.704-102.37 22.605-206.326 22.605s-167.542-12.902-206.326-22.606zm81.785 30.458c-9.744 16.136-24.529 34.645-40.689 43.9-2.194 1.258-4.9.077-5.801-2.173-2.377-5.937-9.198-25.912-4.895-49.976 14.755 2.929 31.772 5.797 51.385 8.249zm-91.796 48.089c0-16.533 9.701-31.473 24.091-38.582.194 13.083 2.641 26.187 7.288 37.794 1.083 2.705 2.755 5.082 4.845 7.01 1.382 12.615 4.3 24.917 8.645 36.709-24.775 1.08-44.869-18.808-44.869-42.931zm17.072 122.944c.484-2.53-.364-5.132-2.248-6.89-19.542-18.247-19.396-48.148-1.787-66.418 11.235 6.805 24.5 9.659 38.011 7.771 13.882 28.504 35.927 52.063 62.664 68.866-16.821 16.224-29.44 36.031-37.001 57.839-35.859 5.944-66.433-25.629-59.639-61.168zm111.361 102.139h-34.322c-5.511 0-10.098-4.803-9.331-10.47 4.204-31.087 19.269-59.501 42.587-80.556.354.182.711.359 1.067.54v90.486zm60.995 0h-45.996v-26.131h56.123c-4.504 8.802-8.058 17.589-10.127 26.131zm-45.995-41.131v-42.572c5.445 2.18 11.009 4.11 16.67 5.789v36.783zm64.639 0h-32.97v-32.975c16.955 3.589 34.684 5.022 53.138 3.936.007.022.011.045.018.067-7.053 9.281-14.038 19.051-20.186 28.972zm134.605-96.393c-.731.326-1.461.649-2.191 1.011-2.661-7.67-7.584-13.491-14.272-16.61-16.574-7.729-37.882 3.84-49.175 26.411-22.286-15.778-51.95 7.139-51.146 41.654-88.49 4.51-161.929-53.05-173.884-128.926 2.282-.345 4.506-1.1 6.552-2.271 13.899-7.96 33.836-26.477 49.493-55.05 67.269 7.054 149.171 7.067 216.565 0 15.657 28.573 35.594 47.09 49.493 55.05 2.049 1.174 4.276 1.929 6.563 2.273-4.524 28.896-17.88 55.077-37.998 76.458zm75.173 28.495c-1.884 1.758-2.732 4.36-2.248 6.89 3.008 15.737-1.097 31.671-11.936 44.059 4.041-14.788-3.175-28.004-17.832-33.089 13.094-26.402 1.279-48.198-20.061-50.525 6.176-8.234 11.474-16.924 15.888-25.977 13.701 1.906 26.93-1.086 37.977-7.776 17.623 18.285 17.739 48.184-1.788 66.418zm-177.747-99.415c-3.125-2.721-7.862-2.396-10.582.727-3.328 3.819-8.133 6.009-13.184 6.009s-9.855-2.19-13.184-6.009c-2.723-3.124-7.46-3.448-10.582-.727s-3.448 7.459-.727 10.581c6.178 7.089 15.105 11.155 24.492 11.155s18.314-4.066 24.492-11.155c2.723-3.122 2.397-7.86-.725-10.581zm55.608-40.362c-13.928 0-25.259 11.331-25.259 25.259 0 4.142 3.357 7.5 7.5 7.5s7.5-3.358 7.5-7.5c0-5.657 4.603-10.259 10.259-10.259s10.259 4.602 10.259 10.259c0 4.142 3.357 7.5 7.5 7.5s7.5-3.358 7.5-7.5c0-13.928-11.331-25.259-25.259-25.259z"/></g></svg>